<svg version="1.0" xmlns="http://www.w3.org/2000/svg"
 width="616" height="434.66" viewBox="0 0 616 434.661947"
 preserveAspectRatio="xMidYMid meet">
<g transform="translate(-396.000000,601.000000) scale(0.100000,-0.100000)"
fill="#1C1A17" stroke="none">
<path d="M7018 5838 l-3 -172 -95 -13 c-299 -40 -592 -189 -826 -421 -211
-209 -349 -467 -416 -777 -29 -134 -31 -415 -5 -548 39 -195 120 -389 234
-562 88 -132 262 -307 398 -397 82 -54 233 -138 248 -138 3 0 0 24 -5 53 -6
28 -8 69 -5 90 5 34 2 39 -26 54 -145 74 -334 237 -444 383 -66 88 -155 259
-192 366 -87 261 -88 559 -2 822 137 415 447 730 854 867 80 27 213 55 259 55
l28 0 2 -165 3 -165 55 36 c110 73 100 39 100 351 0 150 3 273 8 273 23 0 115
-65 145 -102 47 -58 56 -78 72 -154 34 -162 -48 -324 -225 -444 -35 -24 -140
-84 -234 -133 -210 -110 -284 -158 -361 -233 -271 -263 -330 -679 -143 -999
25 -43 76 -104 130 -157 75 -75 103 -95 191 -137 56 -27 127 -54 157 -61 30
-6 65 -13 78 -16 21 -4 22 -8 22 -114 l0 -110 -27 11 c-14 5 -49 10 -78 10
-92 2 -173 -48 -221 -133 -72 -131 -9 -301 134 -358 43 -17 127 -17 176 -1 49
17 121 82 149 136 22 40 22 43 25 759 l3 719 -53 -6 c-29 -3 -65 -11 -80 -18
l-28 -12 0 -359 c0 -197 -4 -358 -8 -358 -4 0 -34 7 -66 15 -189 49 -354 210
-418 405 -29 88 -35 242 -14 332 40 172 141 320 285 418 59 40 194 110 211
110 6 0 10 -28 10 -69 l0 -68 51 8 c28 4 64 5 80 2 l29 -5 0 116 c0 64 4 116
8 116 19 0 210 149 250 195 189 219 185 543 -8 733 -90 88 -221 142 -347 142
l-63 0 -2 -172z"/>
<path d="M7728 5490 c-1 -33 -2 -70 -2 -81 -1 -17 19 -34 88 -75 48 -30 119
-78 156 -109 75 -60 230 -227 230 -247 0 -14 -121 -88 -142 -88 -7 1 -29 21
-48 46 -19 25 -64 72 -99 105 -67 62 -218 169 -238 169 -10 0 -88 -129 -81
-135 2 -1 32 -19 68 -40 62 -37 250 -211 250 -231 0 -6 -34 -29 -76 -53 l-76
-42 -72 69 c-66 65 -176 144 -215 157 -16 5 -152 -75 -159 -94 -1 -4 20 -17
47 -30 117 -52 228 -145 306 -255 19 -27 37 -51 39 -54 3 -2 40 16 83 41 43
25 186 108 318 184 132 77 259 150 283 163 23 13 42 28 42 32 0 17 -73 124
-147 216 -86 105 -207 217 -315 290 -73 49 -209 122 -228 122 -5 0 -11 -27
-12 -60z"/>
<path d="M6775 5275 c-154 -54 -290 -136 -413 -250 -218 -203 -350 -477 -370
-769 -24 -342 87 -646 321 -879 73 -73 268 -217 293 -217 6 0 26 16 45 36 18
20 49 44 68 53 l34 18 -47 22 c-88 43 -201 124 -272 195 -171 172 -269 390
-281 627 -16 294 97 582 308 785 95 91 193 156 310 204 l94 39 5 80 c6 94 9
92 -95 56z"/>
<path d="M7060 4589 c-91 -12 -216 -75 -270 -137 -153 -172 -153 -407 0 -557
l51 -50 -20 45 c-86 197 -8 421 177 508 49 23 70 27 152 27 85 0 102 -3 160
-31 168 -80 272 -279 240 -461 -21 -121 -121 -268 -209 -308 l-41 -18 0 -90 0
-89 27 7 c50 12 159 83 217 142 112 113 167 238 174 399 5 125 -8 192 -60 295
-113 227 -347 352 -598 318z"/>
<path d="M7875 3668 c-91 -183 -325 -379 -512 -428 l-43 -11 0 -84 c0 -47 4
-85 8 -85 22 0 166 55 237 90 131 65 269 180 357 296 22 30 43 54 47 54 4 0
55 -28 114 -63 l107 -63 -68 -78 c-196 -223 -463 -378 -743 -431 -45 -8 -83
-15 -84 -15 -2 0 -13 -21 -26 -47 -12 -25 -39 -62 -59 -82 l-38 -36 103 7
c350 24 711 209 966 496 63 71 169 220 169 238 0 5 -80 55 -177 109 -98 54
-211 118 -251 142 -41 24 -75 43 -78 43 -2 0 -15 -24 -29 -52z"/>
<path d="M3960 1920 l0 -250 180 0 180 0 0 50 0 50 -120 0 -120 0 -2 198 -3
197 -57 3 -58 3 0 -251z"/>
<path d="M4400 1920 l0 -250 193 2 192 3 0 45 0 45 -137 3 -138 3 0 54 0 55
114 0 c125 0 126 1 118 63 l-4 27 -114 0 -114 0 0 34 c0 66 0 66 136 66 l124
0 0 50 0 50 -185 0 -185 0 0 -250z"/>
<path d="M5228 2155 c-56 -21 -106 -62 -136 -114 -36 -61 -38 -174 -5 -237 25
-47 82 -101 127 -119 94 -39 217 -22 282 38 l35 32 -34 34 -35 33 -38 -26
c-55 -37 -139 -37 -184 0 -79 67 -82 172 -6 243 41 38 121 41 182 7 l47 -27
34 33 34 33 -35 31 c-20 17 -53 36 -74 42 -52 16 -148 14 -194 -3z"/>
<path d="M5617 2164 c-4 -4 -7 -117 -7 -251 l0 -243 60 0 60 0 0 105 0 105
110 0 110 0 0 -105 0 -105 60 0 60 0 0 250 0 251 -57 -3 -58 -3 -5 -95 -5 -95
-70 1 c-38 0 -87 2 -107 2 l-37 2 -3 93 -3 92 -50 3 c-28 2 -54 0 -58 -4z"/>
<path d="M6330 2148 c-5 -13 -53 -120 -105 -238 -53 -118 -99 -221 -102 -227
-4 -10 10 -13 54 -13 l59 0 27 55 27 55 110 0 110 0 25 -55 24 -55 60 0 c34 0
61 2 61 4 0 2 -17 41 -39 87 -21 46 -69 152 -106 234 -37 83 -72 156 -77 163
-6 7 -33 12 -64 12 -47 0 -56 -3 -64 -22z m91 -155 c12 -27 27 -65 35 -85 l13
-38 -73 0 -73 0 36 85 c20 47 37 85 39 85 1 0 12 -21 23 -47z"/>
<path d="M6740 1921 l0 -251 55 0 54 0 3 68 3 67 52 3 51 3 47 -71 48 -70 63
0 c35 0 64 2 64 5 0 3 -22 36 -50 74 -27 38 -50 73 -50 79 0 5 16 21 35 36 86
66 68 214 -33 274 -44 25 -55 27 -194 31 l-148 3 0 -251z m278 129 c26 -16 32
-26 32 -55 0 -25 -8 -44 -25 -60 -21 -22 -33 -25 -100 -25 l-75 0 0 73 c0 41
3 77 7 80 3 4 34 7 67 7 43 0 71 -6 94 -20z"/>
<path d="M7267 2163 c-4 -3 -7 -116 -7 -250 l0 -243 185 0 185 0 0 50 0 50
-125 0 -125 0 0 200 0 200 -53 0 c-30 0 -57 -3 -60 -7z"/>
<path d="M7707 2163 c-4 -3 -7 -116 -7 -250 l0 -243 196 0 195 0 -3 48 -3 47
-138 3 -138 3 3 52 3 52 118 3 118 3 -3 42 -3 42 -117 3 -116 3 1 47 2 47 128
3 127 3 0 49 0 50 -178 0 c-98 0 -182 -3 -185 -7z"/>
<path d="M8239 2147 c-55 -28 -95 -98 -84 -147 13 -60 57 -96 148 -120 133
-36 154 -53 123 -96 -22 -29 -136 -27 -194 4 -23 12 -44 22 -46 22 -2 0 -13
-18 -24 -40 l-20 -40 24 -19 c63 -50 202 -62 294 -25 63 25 90 65 90 131 0 80
-34 112 -154 143 -109 29 -135 47 -119 83 19 41 105 46 190 11 31 -13 31 -13
48 28 16 40 16 43 -1 55 -55 40 -207 46 -275 10z"/>
<path d="M8593 2163 c-8 -3 -13 -23 -13 -49 l0 -44 80 0 80 0 0 -200 0 -201
57 3 57 3 0 195 1 195 78 3 78 3 -3 47 -3 47 -200 2 c-110 1 -206 -1 -212 -4z"/>
<path d="M9200 2149 c-98 -44 -151 -123 -153 -228 -2 -57 2 -73 29 -121 87
-153 311 -184 431 -60 122 126 85 333 -72 406 -66 31 -170 33 -235 3z m190
-100 c48 -27 72 -69 73 -128 1 -95 -55 -151 -154 -151 -48 0 -63 4 -90 27
-145 123 5 345 171 252z"/>
<path d="M9670 1920 l0 -250 61 0 61 0 -4 145 c-1 80 -1 145 2 145 3 0 10 -8
16 -17 11 -18 152 -191 200 -245 20 -23 33 -28 69 -28 l45 0 0 250 0 250 -55
0 -54 0 -3 -146 -3 -146 -107 130 c-139 169 -132 162 -184 162 l-44 0 0 -250z"/>
</g>
</svg>
